<?xml version="1.0" encoding="UTF-8"?>
<svg xmlns="http://www.w3.org/2000/svg" xmlns:xlink="http://www.w3.org/1999/xlink" width="17pt" height="18pt" viewBox="0 0 17 18" version="1.1">
<g id="surface1">
<path style=" stroke:none;fill-rule:nonzero;fill:rgb(0%,0%,0%);fill-opacity:1;" d="M 3.804688 15.75 L 0.28125 15.75 L 0.28125 5.234375 L 3.804688 5.234375 Z M 2.042969 3.800781 C 0.914062 3.800781 0 2.9375 0 1.890625 C 0 0.847656 0.914062 0 2.042969 0 C 3.167969 0 4.082031 0.847656 4.082031 1.890625 C 4.082031 2.9375 3.167969 3.800781 2.042969 3.800781 Z M 16.996094 15.75 L 13.480469 15.75 L 13.480469 10.632812 C 13.480469 9.410156 13.453125 7.847656 11.648438 7.847656 C 9.816406 7.847656 9.535156 9.171875 9.535156 10.542969 L 9.535156 15.75 L 6.011719 15.75 L 6.011719 5.234375 L 9.394531 5.234375 L 9.394531 6.667969 L 9.441406 6.667969 C 9.914062 5.84375 11.0625 4.972656 12.777344 4.972656 C 16.34375 4.972656 17 7.148438 17 9.972656 L 17 15.75 Z M 16.996094 15.75 "/>
</g>
</svg>
