<?xml version="1.0" encoding="UTF-8"?>
<svg xmlns="http://www.w3.org/2000/svg" xmlns:xlink="http://www.w3.org/1999/xlink" width="14pt" height="17pt" viewBox="0 0 14 17" version="1.1">
<g id="surface1">
<path style=" stroke:none;fill-rule:nonzero;fill:rgb(0%,0%,0%);fill-opacity:1;" d="M 7.4375 0.214844 C 3.695312 0.214844 0 2.488281 0 6.164062 C 0 8.5 1.445312 9.828125 2.320312 9.828125 C 2.679688 9.828125 2.886719 8.910156 2.886719 8.652344 C 2.886719 8.34375 2.023438 7.6875 2.023438 6.402344 C 2.023438 3.730469 4.253906 1.839844 7.140625 1.839844 C 9.625 1.839844 11.460938 3.125 11.460938 5.484375 C 11.460938 7.25 10.6875 10.554688 8.171875 10.554688 C 7.261719 10.554688 6.484375 9.957031 6.484375 9.101562 C 6.484375 7.847656 7.449219 6.628906 7.449219 5.335938 C 7.449219 3.136719 4.023438 3.535156 4.023438 6.191406 C 4.023438 6.75 4.101562 7.367188 4.375 7.875 C 3.871094 9.847656 2.84375 12.785156 2.84375 14.820312 C 2.84375 15.445312 2.941406 16.0625 3.007812 16.691406 C 3.132812 16.816406 3.070312 16.804688 3.257812 16.742188 C 5.097656 14.449219 5.03125 14 5.863281 11.003906 C 6.3125 11.78125 7.46875 12.199219 8.390625 12.199219 C 12.261719 12.199219 14 8.761719 14 5.664062 C 14 2.367188 10.871094 0.214844 7.4375 0.214844 Z M 7.4375 0.214844 "/>
</g>
</svg>
